<svg xmlns="http://www.w3.org/2000/svg" viewBox="0 0 256 256" role="img" aria-label="anran-laoshi avatar">
  <rect width="256" height="256" fill="#6366f1"/>
  <circle cx="42" cy="42" r="18" fill="#fff" opacity=".22"/>
  <circle cx="214" cy="52" r="12" fill="#fff" opacity=".18"/>
  <path d="M41 232c18-52 54-80 91-80s73 28 91 80Z" fill="#312e81" stroke="#172033" stroke-width="5"/>
  <path d="M100 158h59l-9 33h-41Z" fill="#f8fafc" stroke="#172033" stroke-width="5" stroke-linejoin="round"/>
  <path d="M122 188h25l-8 44h-22Z" fill="#f59e0b" stroke="#172033" stroke-width="5" stroke-linejoin="round"/>
  
    <path d="M82 70c10-25 80-27 94 1 20 7 27 27 22 50-6 30-28 52-69 52s-64-22-70-52c-5-24 4-44 23-51Z" fill="#f6c995" stroke="#172033" stroke-width="5"/>
    <path d="M80 80c19-31 76-38 103-8-22-3-36 7-52 6-21-1-32-9-51 2Z" fill="#d97706" stroke="#172033" stroke-width="5" stroke-linejoin="round"/>
    <path d="M95 117h26M148 117h26" stroke="#111827" stroke-width="7" stroke-linecap="round"/>
    <circle cx="109" cy="134" r="7" fill="#111827"/><circle cx="160" cy="134" r="7" fill="#111827"/>
    <path d="M122 157c12 9 28 9 40 0" fill="none" stroke="#172033" stroke-width="5" stroke-linecap="round"/>
  <path d="M62 201c17 3 33 2 46-7" fill="none" stroke="#172033" stroke-width="10" stroke-linecap="round"/>
  <g transform="translate(151 141)"><path d="M9 54c13-26 41-35 70-20" stroke="#172033" stroke-width="5" stroke-linecap="round" stroke-linejoin="round" fill="none"/><circle cx="17" cy="55" r="7" fill="#e0e7ff" stroke="#172033" stroke-width="5" stroke-linecap="round" stroke-linejoin="round"/><circle cx="39" cy="39" r="7" fill="#e0e7ff" stroke="#172033" stroke-width="5" stroke-linecap="round" stroke-linejoin="round"/><circle cx="64" cy="34" r="7" fill="#e0e7ff" stroke="#172033" stroke-width="5" stroke-linecap="round" stroke-linejoin="round"/><circle cx="82" cy="48" r="7" fill="#e0e7ff" stroke="#172033" stroke-width="5" stroke-linecap="round" stroke-linejoin="round"/></g>
  <path d="M151 200c18 8 36 8 54 0" fill="none" stroke="#172033" stroke-width="10" stroke-linecap="round"/>
</svg>
