<svg xmlns="http://www.w3.org/2000/svg" viewBox="0 0 256 256" role="img" aria-label="cartoon family education shield avatar">
  <defs>
    <linearGradient id="bg" x1="0" x2="1" y1="0" y2="1">
      <stop stop-color="#fff1f2"/>
      <stop offset="1" stop-color="#fde68a"/>
    </linearGradient>
    <linearGradient id="shield" x1="56" x2="200" y1="40" y2="212">
      <stop stop-color="#fca5a5"/>
      <stop offset="1" stop-color="#dc2626"/>
    </linearGradient>
  </defs>
  <rect width="256" height="256" rx="54" fill="url(#bg)"/>
  <path d="M128 34l58 18v54c0 47-28 82-58 116-30-34-58-69-58-116V52Z" fill="url(#shield)" stroke="#7f1d1d" stroke-width="8" stroke-linejoin="round"/>
  <path d="M128 60c21 0 38 16 38 36 0 18-12 32-28 36v18h-20v-18c-16-4-28-18-28-36 0-20 17-36 38-36Z" fill="#fff7ed" opacity=".95"/>
  <circle cx="116" cy="104" r="7" fill="#7f1d1d"/>
  <circle cx="140" cy="104" r="7" fill="#7f1d1d"/>
  <path d="M111 123c6 6 28 6 34 0" fill="none" stroke="#7f1d1d" stroke-width="6" stroke-linecap="round"/>
  <path d="M92 156c8-14 21-21 36-21s28 7 36 21" fill="none" stroke="#fff7ed" stroke-width="9" stroke-linecap="round"/>
  <path d="M92 156c8 14 21 21 36 21s28-7 36-21" fill="none" stroke="#fff7ed" stroke-width="9" stroke-linecap="round"/>
  <path d="M112 73c6-10 17-16 16-16" fill="none" stroke="#b91c1c" stroke-width="7" stroke-linecap="round"/>
  <path d="M144 73c-6-10-17-16-16-16" fill="none" stroke="#b91c1c" stroke-width="7" stroke-linecap="round"/>
  <circle cx="80" cy="74" r="10" fill="#fff" opacity=".65"/>
  <circle cx="176" cy="78" r="8" fill="#fff" opacity=".65"/>
</svg>
