<svg xmlns="http://www.w3.org/2000/svg" viewBox="0 0 256 256" role="img" aria-label="cartoon hammer avatar">
  <defs>
    <linearGradient id="head" x1="60" x2="196" y1="54" y2="156">
      <stop stop-color="#f59e0b"/>
      <stop offset="1" stop-color="#b45309"/>
    </linearGradient>
    <linearGradient id="handle" x1="103" x2="153" y1="98" y2="212">
      <stop stop-color="#8b5e34"/>
      <stop offset="1" stop-color="#4b2f16"/>
    </linearGradient>
  </defs>
  <rect width="256" height="256" rx="54" fill="#fff7ed"/>
  <path d="M72 84h100c18 0 32 14 32 32v8H72a18 18 0 0 1-18-18 22 22 0 0 1 18-22Z" fill="url(#head)"/>
  <path d="M90 84h70c17 0 32 15 32 32v8H90a18 18 0 0 1-18-18c0-12 8-22 18-22Z" fill="#fed7aa" opacity=".55"/>
  <rect x="113" y="120" width="34" height="90" rx="17" fill="url(#handle)"/>
  <rect x="99" y="194" width="62" height="18" rx="9" fill="#b45309"/>
  <circle cx="96" cy="138" r="8" fill="#111827"/>
  <circle cx="144" cy="138" r="8" fill="#111827"/>
  <circle cx="99" cy="135" r="3" fill="#fff"/>
  <circle cx="147" cy="135" r="3" fill="#fff"/>
  <path d="M100 162c12 11 32 11 44 0" fill="none" stroke="#7c2d12" stroke-width="7" stroke-linecap="round"/>
  <path d="M50 58c18-16 38-16 57 0" fill="none" stroke="#9a3412" stroke-width="8" stroke-linecap="round"/>
  <path d="M149 58c18-16 38-16 57 0" fill="none" stroke="#9a3412" stroke-width="8" stroke-linecap="round"/>
  <circle cx="72" cy="206" r="12" fill="#f97316"/>
  <circle cx="184" cy="206" r="12" fill="#f97316"/>
  <path d="M72 206h112" stroke="#c2410c" stroke-width="10" stroke-linecap="round"/>
</svg>
