<svg xmlns="http://www.w3.org/2000/svg" viewBox="0 0 256 256" role="img" aria-label="songbai-xiansheng avatar">
  <rect width="256" height="256" fill="#22c55e"/>
  <circle cx="42" cy="42" r="18" fill="#fff" opacity=".22"/>
  <circle cx="214" cy="52" r="12" fill="#fff" opacity=".18"/>
  <path d="M41 232c18-52 54-80 91-80s73 28 91 80Z" fill="#14532d" stroke="#172033" stroke-width="5"/>
  <path d="M100 158h59l-9 33h-41Z" fill="#f8fafc" stroke="#172033" stroke-width="5" stroke-linejoin="round"/>
  <path d="M122 188h25l-8 44h-22Z" fill="#15803d" stroke="#172033" stroke-width="5" stroke-linejoin="round"/>
  
    <path d="M82 70c10-25 80-27 94 1 20 7 27 27 22 50-6 30-28 52-69 52s-64-22-70-52c-5-24 4-44 23-51Z" fill="#f6d2aa" stroke="#172033" stroke-width="5"/>
    <path d="M80 80c19-31 76-38 103-8-22-3-36 7-52 6-21-1-32-9-51 2Z" fill="#1f2937" stroke="#172033" stroke-width="5" stroke-linejoin="round"/>
    <path d="M95 117h26M148 117h26" stroke="#111827" stroke-width="7" stroke-linecap="round"/>
    <circle cx="109" cy="134" r="7" fill="#111827"/><circle cx="160" cy="134" r="7" fill="#111827"/>
    <path d="M122 157c12 9 28 9 40 0" fill="none" stroke="#172033" stroke-width="5" stroke-linecap="round"/>
  <path d="M62 201c17 3 33 2 46-7" fill="none" stroke="#172033" stroke-width="10" stroke-linecap="round"/>
  <g transform="translate(147 151)"><path d="M10 30h80c-5 28-20 45-40 45S15 58 10 30Z" fill="#dcfce7" stroke="#172033" stroke-width="5" stroke-linecap="round" stroke-linejoin="round"/><path d="M18 28c6-16 20-18 30-30M44 28c5-13 17-16 26-26" stroke="#172033" stroke-width="5" stroke-linecap="round" stroke-linejoin="round" fill="none"/></g>
  <path d="M151 200c18 8 36 8 54 0" fill="none" stroke="#172033" stroke-width="10" stroke-linecap="round"/>
</svg>
