<svg xmlns="http://www.w3.org/2000/svg" viewBox="0 0 256 256" role="img" aria-label="cartoon mindfulness lotus avatar">
  <defs>
    <linearGradient id="bg" x1="0" x2="1" y1="0" y2="1">
      <stop stop-color="#eff6ff"/>
      <stop offset="1" stop-color="#e0e7ff"/>
    </linearGradient>
    <linearGradient id="lotus" x1="60" x2="196" y1="56" y2="208">
      <stop stop-color="#ffffff"/>
      <stop offset="1" stop-color="#bfdbfe"/>
    </linearGradient>
  </defs>
  <rect width="256" height="256" rx="54" fill="url(#bg)"/>
  <circle cx="128" cy="128" r="72" fill="#ffffff" opacity=".55"/>
  <path d="M128 56c20 18 29 39 29 61 0 11-3 24-9 36-6 12-14 22-20 32-6-10-14-20-20-32-6-12-9-25-9-36 0-22 9-43 29-61Z" fill="url(#lotus)" stroke="#64748b" stroke-width="7" stroke-linejoin="round"/>
  <path d="M128 89c10 10 15 22 15 35 0 11-4 23-15 38-11-15-15-27-15-38 0-13 5-25 15-35Z" fill="#60a5fa" opacity=".8"/>
  <path d="M74 149c12-18 28-27 48-27s36 9 48 27c-14 4-31 6-48 6s-34-2-48-6Z" fill="#bfdbfe" stroke="#64748b" stroke-width="7" stroke-linejoin="round"/>
  <path d="M94 171c9-5 20-8 34-8s25 3 34 8c-11 7-23 10-34 10s-23-3-34-10Z" fill="#fff" stroke="#64748b" stroke-width="7" stroke-linejoin="round"/>
  <circle cx="128" cy="126" r="7" fill="#1e293b"/>
  <path d="M110 138c8 6 28 6 36 0" fill="none" stroke="#1e293b" stroke-width="6" stroke-linecap="round"/>
  <path d="M82 94c-8-10-12-20-12-31" fill="none" stroke="#60a5fa" stroke-width="7" stroke-linecap="round"/>
  <path d="M174 94c8-10 12-20 12-31" fill="none" stroke="#60a5fa" stroke-width="7" stroke-linecap="round"/>
  <circle cx="86" cy="86" r="8" fill="#fff" opacity=".8"/>
  <circle cx="170" cy="86" r="8" fill="#fff" opacity=".8"/>
</svg>
