<svg xmlns="http://www.w3.org/2000/svg" viewBox="0 0 256 256" role="img" aria-label="cartoon structure avatar">
  <rect width="256" height="256" rx="54" fill="#f8fafc"/>
  <path d="M72 70h112v28H72z" fill="#e2e8f0" stroke="#475569" stroke-width="8" stroke-linejoin="round"/>
  <path d="M64 106h128v28H64z" fill="#cbd5e1" stroke="#475569" stroke-width="8" stroke-linejoin="round"/>
  <path d="M56 142h144v34c0 16-13 30-30 30H86c-16 0-30-14-30-30z" fill="#94a3b8" stroke="#334155" stroke-width="8" stroke-linejoin="round"/>
  <circle cx="104" cy="134" r="8" fill="#111827"/>
  <circle cx="152" cy="134" r="8" fill="#111827"/>
  <circle cx="107" cy="131" r="3" fill="#fff"/>
  <circle cx="155" cy="131" r="3" fill="#fff"/>
  <path d="M106 160c12 8 32 8 44 0" fill="none" stroke="#1e293b" stroke-width="7" stroke-linecap="round"/>
  <path d="M90 58c8-10 18-14 28-14" fill="none" stroke="#94a3b8" stroke-width="8" stroke-linecap="round"/>
  <path d="M166 58c8-10 18-14 28-14" fill="none" stroke="#94a3b8" stroke-width="8" stroke-linecap="round"/>
  <path d="M90 210h76" stroke="#64748b" stroke-width="10" stroke-linecap="round"/>
  <path d="M90 210l-16 18" stroke="#64748b" stroke-width="8" stroke-linecap="round"/>
  <path d="M166 210l16 18" stroke="#64748b" stroke-width="8" stroke-linecap="round"/>
</svg>
