<svg xmlns="http://www.w3.org/2000/svg" viewBox="0 0 256 256" role="img" aria-label="cartoon magnet avatar">
  <defs>
    <linearGradient id="magnet" x1="64" x2="192" y1="28" y2="228">
      <stop stop-color="#dbeafe"/>
      <stop offset="1" stop-color="#38bdf8"/>
    </linearGradient>
  </defs>
  <rect width="256" height="256" rx="54" fill="#eff6ff"/>
  <path d="M90 58c0-18 16-32 38-32s38 14 38 32v66c0 18-16 34-38 34s-38-16-38-34z" fill="url(#magnet)" stroke="#1d4ed8" stroke-width="8"/>
  <path d="M90 58h24v66H90z" fill="#eff6ff" opacity=".38"/>
  <path d="M142 58h24v66h-24z" fill="#eff6ff" opacity=".38"/>
  <path d="M90 124c0 18 16 34 38 34s38-16 38-34v24c0 18-16 34-38 34s-38-16-38-34z" fill="#0284c7" opacity=".95" stroke="#0c4a6e" stroke-width="8"/>
  <circle cx="110" cy="110" r="8" fill="#111827"/>
  <circle cx="146" cy="110" r="8" fill="#111827"/>
  <circle cx="113" cy="107" r="3" fill="#fff"/>
  <circle cx="149" cy="107" r="3" fill="#fff"/>
  <path d="M108 136c10 8 30 8 40 0" fill="none" stroke="#0f172a" stroke-width="7" stroke-linecap="round"/>
  <path d="M70 190h116" stroke="#1d4ed8" stroke-width="10" stroke-linecap="round"/>
  <path d="M86 190c0-14 10-26 24-26" fill="none" stroke="#38bdf8" stroke-width="8" stroke-linecap="round"/>
  <path d="M170 190c0-14-10-26-24-26" fill="none" stroke="#38bdf8" stroke-width="8" stroke-linecap="round"/>
  <path d="M184 74c20 8 28 26 22 42" fill="none" stroke="#a5f3fc" stroke-width="8" stroke-linecap="round"/>
  <path d="M72 74c-20 8-28 26-22 42" fill="none" stroke="#a5f3fc" stroke-width="8" stroke-linecap="round"/>
</svg>
