<svg xmlns="http://www.w3.org/2000/svg" viewBox="0 0 256 256" role="img" aria-label="cartoon intestine avatar">
  <defs>
    <linearGradient id="gut" x1="60" x2="196" y1="42" y2="214">
      <stop stop-color="#fecdd3"/>
      <stop offset="1" stop-color="#fb7185"/>
    </linearGradient>
  </defs>
  <rect width="256" height="256" rx="54" fill="#fff1f2"/>
  <path d="M84 64c0-18 15-32 34-32h22c18 0 34 14 34 32v22c0 12-6 22-16 28 14 6 24 20 24 36 0 24-20 44-44 44H98c-24 0-44-20-44-44 0-16 10-30 24-36-10-6-16-16-16-28Z" fill="url(#gut)" stroke="#be123c" stroke-width="8" stroke-linejoin="round"/>
  <circle cx="106" cy="100" r="8" fill="#111827"/>
  <circle cx="146" cy="100" r="8" fill="#111827"/>
  <circle cx="109" cy="97" r="3" fill="#fff"/>
  <circle cx="149" cy="97" r="3" fill="#fff"/>
  <path d="M108 126c12 8 28 8 40 0" fill="none" stroke="#7f1d1d" stroke-width="7" stroke-linecap="round"/>
  <path d="M76 188c14-10 28-8 40 4" fill="none" stroke="#be123c" stroke-width="8" stroke-linecap="round"/>
  <path d="M180 188c-14-10-28-8-40 4" fill="none" stroke="#be123c" stroke-width="8" stroke-linecap="round"/>
  <path d="M78 72c-12 10-16 26-12 40" fill="none" stroke="#fecdd3" stroke-width="8" stroke-linecap="round"/>
  <path d="M178 72c12 10 16 26 12 40" fill="none" stroke="#fecdd3" stroke-width="8" stroke-linecap="round"/>
  <path d="M126 40v26" stroke="#be123c" stroke-width="8" stroke-linecap="round"/>
  <path d="M116 28h20" stroke="#be123c" stroke-width="8" stroke-linecap="round"/>
</svg>
