<svg xmlns="http://www.w3.org/2000/svg" viewBox="0 0 256 256" role="img" aria-label="zhiyuan-laoshi avatar">
  <rect width="256" height="256" fill="#f000d8"/>
  <circle cx="42" cy="42" r="18" fill="#fff" opacity=".22"/>
  <circle cx="214" cy="52" r="12" fill="#fff" opacity=".18"/>
  <path d="M41 232c18-52 54-80 91-80s73 28 91 80Z" fill="#172033" stroke="#172033" stroke-width="5"/>
  <path d="M100 158h59l-9 33h-41Z" fill="#f8fafc" stroke="#172033" stroke-width="5" stroke-linejoin="round"/>
  <path d="M122 188h25l-8 44h-22Z" fill="#2f89c5" stroke="#172033" stroke-width="5" stroke-linejoin="round"/>
  
      <path d="M87 148 72 112 91 82l14-47 22 31 29-48 14 58 23 25-12 47Z" fill="#dff5ff" stroke="#172033" stroke-width="5" stroke-linejoin="round"/>
      <path d="M104 68 92 119l30-35 15 56 18-65 21 47" fill="none" stroke="#92cfe8" stroke-width="4" stroke-linecap="round" opacity=".85"/>
      <path d="M105 119h21M151 119h21" stroke="#111827" stroke-width="7" stroke-linecap="round"/>
      <circle cx="114" cy="134" r="6" fill="#0f172a"/><circle cx="159" cy="134" r="6" fill="#0f172a"/>
      <path d="M120 159c11-7 29-7 40 0" fill="none" stroke="#172033" stroke-width="5" stroke-linecap="round"/>
  <path d="M62 201c17 3 33 2 46-7" fill="none" stroke="#172033" stroke-width="10" stroke-linecap="round"/>
  <g transform="translate(149 132) rotate(8)"><rect x="0" y="0" width="70" height="84" rx="8" fill="#fff7ed" stroke="#172033" stroke-width="5" stroke-linecap="round" stroke-linejoin="round"/><path d="M15 64V48M31 64V38M47 64V27" stroke="#172033" stroke-width="5" stroke-linecap="round" stroke-linejoin="round"/><path d="M13 32l15-12 14 8 17-19" stroke="#172033" stroke-width="5" stroke-linecap="round" stroke-linejoin="round" fill="none"/><path d="M58 9v17H43" stroke="#172033" stroke-width="5" stroke-linecap="round" stroke-linejoin="round" fill="none"/></g>
  <path d="M151 200c18 8 36 8 54 0" fill="none" stroke="#172033" stroke-width="10" stroke-linecap="round"/>
</svg>
